<?xml version="1.0" encoding="UTF-8"?>
<svg id="Layer_1" data-name="Layer 1" xmlns="http://www.w3.org/2000/svg" viewBox="0 0 64 64">
  <defs>
    <style>
      .cls-1 {
        fill: #d47628;
        stroke-width: 0px;
      }
    </style>
  </defs>
  <path class="cls-1" d="m27.65,27.18c1.29.17,2.61.22,3.87.54,1.17.3,2.27.87,3.4,1.34.48.2.88.11,1.04-.28.17-.38,0-.73-.48-.98-2.38-1.26-4.9-1.95-7.6-1.98-.28-.02-.56-.06-.83-.05-.4.02-.7.2-.72.64-.02.43.2.67.63.72.23.02.46.03.68.06Z"/>
  <path class="cls-1" d="m25.57,29.33c-.05.35.11.61.45.72.18.06.38.06.58.08,1.02.12,2.05.19,3.06.37,1.59.27,3.05.93,4.5,1.61.44.2.78.09.97-.26.19-.38.06-.74-.38-.96-2.49-1.28-5.11-2.05-7.92-2.13-.21,0-.43,0-.64,0-.37.02-.57.24-.62.58Z"/>
  <path class="cls-1" d="m33.95,33.94c-2.61-1.26-5.33-2.11-8.26-2.21-.54-.03-.9.24-.91.66-.01.4.31.67.83.71,1.73.12,3.44.38,5.08.99.9.33,1.78.73,2.67,1.09.45.18.78.07.95-.3.18-.36.05-.72-.36-.93Z"/>
  <path class="cls-1" d="m19.3,43.61c.08-.47-.25-.75-.66-.53-.2.11-.41.35-.46.56-.16.68-.29,1.37-.35,2.07-.16,2.02,1.65,3.43,3.07,3.75-.01-.03-.02-.06-.04-.08-.06-.05-.13-.1-.2-.14-1.5-.87-2.03-2.17-1.71-3.86.11-.59.24-1.18.34-1.77Z"/>
  <path class="cls-1" d="m24.03,50.41c.17.04.34.04.51.06.02-.05.03-.1.05-.14-.2-.13-.39-.26-.6-.38-.36-.22-.74-.41-1.1-.65-1.13-.76-1.61-1.82-1.4-3.16.1-.68.27-1.34.36-2.02.03-.2-.03-.49-.16-.6-.14-.11-.45-.11-.63-.03-.18.08-.39.3-.42.48-.17.93-.33,1.86-.4,2.8-.06.81.3,1.5.89,2.05.83.77,1.78,1.32,2.89,1.59Z"/>
  <path class="cls-1" d="m31.37,42.95c-.76-.29-1.52-.57-2.29-.85-1.83-.65-3.7-1.14-5.48-1.36-.75-.04-1.05.17-1.08.61-.02.44.27.7.83.76.36.04.71.09,1.06.15,2.23.39,4.34,1.14,6.44,1.95.51.2.88.09,1.04-.29.18-.4-.02-.78-.53-.98Z"/>
  <path class="cls-1" d="m26.76,49.94c-1.18-.68-1.8-1.69-1.6-3.09.1-.69.26-1.38.35-2.07.03-.21-.02-.55-.16-.65-.17-.12-.52-.15-.71-.05-.23.12-.46.4-.51.65-.17.79-.32,1.6-.37,2.41-.08,1.16.32,2.16,1.26,2.88.91.69,1.93,1.16,3.04,1.41.36.08.75.08,1.12.11.02-.07.05-.15.07-.22-.19-.13-.37-.28-.58-.39-.63-.34-1.29-.63-1.91-.99Z"/>
  <path class="cls-1" d="m33.11,36.96c-2.55-1.15-5.17-2.03-7.98-2.21-.74-.04-1.05.13-1.09.6-.04.47.29.73,1.03.78.03,0,.07,0,.1,0,.63.08,1.27.14,1.89.26,1.91.34,3.7,1.05,5.47,1.81.45.19.82.06.98-.33.16-.37.03-.71-.41-.91Z"/>
  <path class="cls-1" d="m59.07,58.59c-.47-2.01-1.41-5.45-2.84-10.32-1.43-4.86-3.03-9.94-4.83-15.24-1.79-5.29-3.63-10.19-5.51-14.69-1.55-3.72-2.93-6.34-4.14-7.88l1.58-.9c.38-.21.61-.62.6-1.06,0-.45-.26-.85-.65-1.06l-4.38-2.3-2.3-4.38c-.21-.4-.61-.65-1.06-.65,0,0-.01,0-.02,0-.43,0-.83.23-1.04.6l-2.63,4.62-4.62,2.63s-.07.06-.11.08c-2.09.23-4.03.58-5.81,1.06-2.15.58-3.45,1.22-3.89,1.93-1.11,1.84-2.4,5.03-3.89,9.55-1.49,4.52-2.89,9.37-4.22,14.54-1.33,5.17-2.43,10.15-3.32,14.94-.88,4.79-1.3,8.38-1.25,10.76.02.71.27,1.31.74,1.81.52.64,2.65,1.01,6.39,1.12,3.75.11,6.12.05,7.13-.17.44-.1.77-.28.99-.55.44-.44,1.13-1.61,2.06-3.5.93-1.89,1.77-3.61,2.51-5.16.56-1.2,1.79-1.83,3.68-1.88h.12c-.09-.08-.25-.12-.52-.18-2.49-.51-4.94-1.13-7.24-2.23-.85-.4-1.67-.91-2.41-1.49-1.34-1.05-1.82-2.48-1.44-4.15.17-.73.4-1.45.59-2.17.11-.44.39-.56.8-.54.78.04,1.57.07,2.35.09.53.02.8-.19.82-.62.03-.44-.2-.7-.73-.74-.54-.04-1.08-.08-1.62-.03-.26.02-.51.23-.77.35-.5-.71-.14-1.74.7-1.84.76-.1,1.53-.06,2.3-.07.56,0,.85-.2.88-.63.03-.44-.28-.72-.84-.75-.08,0-.16-.01-.25,0-.69.06-1.46-.28-1.97.49-.57-.84-.12-1.87.82-1.96.7-.07,1.4-.08,2.11-.1.55-.02.89-.27.89-.69,0-.41-.35-.68-.9-.69-.1,0-.2,0-.29,0-.65.02-1.36-.17-1.81.54-.54-.67-.2-1.74.61-1.89.77-.14,1.56-.16,2.34-.2.37-.02.64-.13.76-.5.13-.42-.15-.86-.61-.87-.55-.02-1.12,0-1.66.08-.25.04-.47.3-.7.47-.47-.64-.17-1.64.63-1.84.72-.18,1.48-.22,2.23-.28.59-.05.9-.26.9-.68,0-.44-.36-.72-.94-.7-.41.01-.83,0-1.22.1-.29.08-.53.32-.8.5-.48-.5-.21-1.51.56-1.79.47-.17.98-.22,1.48-.3.34-.05.69-.05,1.03-.08.41-.04.62-.29.61-.69,0-.41-.26-.65-.65-.66-.49-.01-.99,0-1.46.11-.28.07-.51.35-.77.54-.57-.68.44-3.33,1.64-4.15-.21.47-.41.87-.57,1.3-.22.59-.12.96.22,1.07.37.12.66-.14.83-.76.31-1.15.8-2.18,1.79-2.91.68-.5,1.44-.75,2.39-.74-.15.11-.22.18-.3.23-1.37.76-2.02,1.99-2.3,3.47-.06.33.07.59.39.7.32.11.6,0,.73-.32.14-.33.23-.68.34-1.02.7-2.17,2.42-3.31,4.61-2.94-.91.48-1.46,1.18-1.77,2.06-.16.44-.28.9-.39,1.36-.1.4.07.72.46.86.4.14.68-.06.83-.41.14-.33.22-.68.33-1.02.37-1.26,1.16-2.08,2.5-2.24.41-.05.87-.02,1.24.14,2.41,1.04,4.64,2.37,6.36,4.4,1.35,1.6,1.79,3.5,1.59,5.55-.06.58-.28,1.13-.98,1.58.2-1.05-.53-1.35-1.08-1.74-.51-.36-1.04-.67-1.58-.98-.39-.23-.77-.12-.97.22-.2.33-.09.73.31.96,1.13.67,2.24,1.36,3.11,2.37.56.65.39,1.45-.39,1.86-.03-.02-.08-.03-.08-.05-.04-.72-.58-1.05-1.1-1.38-.51-.32-1.02-.64-1.55-.95-.49-.28-.9-.21-1.1.18-.2.39-.03.72.45,1.03.8.51,1.59,1.03,2.35,1.59.32.24.6.57.82.9.34.5-.02,1.33-.61,1.53-.51-1.43-1.93-1.73-3.03-2.41-.31-.19-.66.03-.8.36-.14.35-.07.67.29.89.59.35,1.2.68,1.76,1.06.46.31.9.66,1.3,1.04.66.62.52,1.48-.29,1.97-.03-.01-.08-.02-.08-.04-.08-.69-.61-.99-1.14-1.3-.52-.3-1.04-.61-1.58-.9-.45-.24-.87-.15-1.06.22-.19.37-.03.72.42,1,.99.63,2,1.24,2.95,1.93.7.51.49,1.57-.34,1.95-.53-1.34-1.9-1.56-2.95-2.2-.33-.2-.72-.06-.89.34-.17.4-.01.69.34.9,1.02.61,2.06,1.2,3.05,1.87.72.48.48,1.63-.35,1.96-.56-1.32-1.94-1.51-3-2.13-.32-.19-.68,0-.84.38-.18.41,0,.69.36.89.84.47,1.72.89,2.52,1.41,1.23.8,1.19.49.65,1.99-.6,1.67-1.67,2.79-3.23,3.28.54.16,1,.45,1.36.89.79.96,1.59,2.72,2.41,5.29.82,2.57,1.68,4.12,2.56,4.66.27.17.56.28.88.33.81.1,2.82.05,6.02-.13,3.21-.18,5.89-.46,8.05-.83,1.28-.22,2.17-.62,2.69-1.2.52-.58.61-1.6.29-3.08ZM32.64,6.57c.18-.11.34-.26.44-.44l2.44-4.29,2.13,4.05c.12.22.29.4.52.51l4.05,2.13-4.29,2.44c-.18.11-.34.26-.44.45l-2.44,4.29-2.12-4.05c-.12-.22-.29-.4-.52-.52l-4.05-2.13,4.29-2.44Z"/>
  <path class="cls-1" d="m32.11,39.9c-.53-.22-1.06-.42-1.59-.62-2.08-.79-4.21-1.38-6.56-1.57-.33-.01-.64.23-.67.62-.03.43.22.69.71.75.58.07,1.17.14,1.74.24,2.03.36,3.96,1.07,5.86,1.85.55.23.96.12,1.11-.29.16-.42-.03-.76-.6-.99Z"/>
</svg>